<?xml version="1.0" encoding="UTF-8"?>
<svg xmlns="http://www.w3.org/2000/svg" xmlns:xlink="http://www.w3.org/1999/xlink" version="1.1" id="Layer_1" x="0px" y="0px" viewBox="0 0 4000 4000" style="background: transparent;" xml:space="preserve">
<g>
	<g>
		<g>
			
		</g>
	</g>
	<g>
		<g>
			<g>
				<g>
					<path style="fill:#FFD243;" d="M3277.727,3436.247H722.296c0-76.201,6.662-152.676,20.533-228.603       c24.32-134.014,70.726-266.293,140.447-391.957c109.055-196.115,262.004-352.305,439.868-463.093       c28.564-17.932,57.858-34.542,87.7-50.01c160.616-83.319,337.384-131.869,518.214-141.953c1.597-0.091,3.194-0.274,4.791-0.319       c11.043-0.593,22.085-1.05,33.264-1.278c22.084-0.639,44.169-0.639,66.208-0.092c150.029,3.742,300.972,34.131,445.845,93.039       c47.82,19.347,95.092,41.842,141.314,67.623c9.993,5.521,19.849,11.088,29.568,16.974c5.932,3.422,11.772,7.027,17.476,10.586       C3058.067,2585.988,3277.316,3004.866,3277.727,3436.247z"/>
				</g>
			</g>
			<g>
				<g>
					<path style="fill:#FCAC38;" d="M847.83,3246.396c24.319-134.014,70.725-266.294,140.447-391.958       c109.055-196.113,262.004-352.305,439.868-463.093c28.564-17.932,57.859-34.541,87.7-50.01       c160.615-83.318,337.383-131.868,518.213-141.953c1.597-0.09,3.193-0.273,4.79-0.317c11.042-0.593,22.085-1.05,33.264-1.279       c22.085-0.637,44.17-0.637,66.208-0.09c114.705,2.861,229.934,21.357,342.585,56.206c-5.571-2.346-11.15-4.661-16.741-6.921       c-144.873-58.909-295.815-89.297-445.845-93.04c-22.039-0.547-44.124-0.547-66.208,0.093       c-11.179,0.227-22.222,0.684-33.264,1.277c-1.597,0.046-3.193,0.229-4.79,0.32c-180.83,10.083-357.598,58.633-518.213,141.953       c-29.841,15.469-59.136,32.078-87.7,50.01c-177.864,110.789-330.813,266.978-439.868,463.093       c-69.722,125.664-116.128,257.944-140.447,391.958c-13.872,75.925-20.535,152.402-20.535,228.604H828.11       C830.188,3369.561,836.611,3307.8,847.83,3246.396z"/>
				</g>
			</g>
			<g>
				<g>
					
						<ellipse transform="matrix(0.1351 -0.9908 0.9908 0.1351 -704.3615 4607.1055)" style="fill:#FFD243;" cx="2286.681" cy="2706.998" rx="111.477" ry="247.926"/>
				</g>
			</g>
			<g>
				<g>
					<path style="fill:#FCAC38;" d="M3131.771,3436.232h-300.839c48.229-84.84,116.037-142.063,179.15-142.222       C3072.558,3293.851,3118.399,3351.551,3131.771,3436.232z"/>
				</g>
			</g>
			<g>
				<g>
					
						<ellipse transform="matrix(0.998 -0.064 0.064 0.998 -168.0169 96.2838)" style="fill:#FCAC38;" cx="1419.979" cy="2672.625" rx="126.965" ry="108.299"/>
				</g>
			</g>
			<g>
				<g>
					
						<ellipse transform="matrix(0.9378 -0.3471 0.3471 0.9378 -850.3578 671.18)" style="fill:#FFD243;" cx="1448.143" cy="2709.012" rx="95.397" ry="76.974"/>
				</g>
			</g>
			<g>
				<g>
					<path style="fill:#371A45;" d="M1423.877,2791.694c-56.45,7.75-120.76-21.59-143.164-76.636       c-25.204-59.37,9.4-125.807,64.451-152.848c77.371-41.591,195.888-9.325,214.494,83.833c4.085,21.59,1.2,43.961-8.306,63.546       c-2.998,6.453-7.163,12.2-10.989,17.996c-1.448,2.19-4.397,2.795-6.589,1.348c-2.167-1.419-2.741-4.285-1.45-6.45       c11.86-22.773,15.205-48.845,7.947-71.941c-21.797-72.715-118.84-94.296-180.39-60.185       c-71.537,37.702-78.512,124.554-8.01,168.114c20.819,13.091,45.795,20.039,71.518,21.418       C1430.566,2780.215,1430.943,2790.796,1423.877,2791.694L1423.877,2791.694z"/>
				</g>
			</g>
			<g>
				<g>
					<path style="fill:#371A45;" d="M1584.067,2595.789c36.921,42.728,42.306,108.722,15.538,158.647       c-25.758,51.082-77.369,85.572-132.096,98.133c-54.564,12.471-114.143,5.099-162.073-24.466       c-47.639-27.913-82.76-81.374-79.76-137.293c0.371-5.797,8.836-6.036,9.516-0.304c3.318,25.183,12.942,48.655,27.58,68.259       c67.973,89.188,214.864,89.917,290.74,10.754c24.625-25.936,40.255-60.591,40.18-96.633       c0.196-24.143-6.862-48.388-19.313-70.332C1570.837,2596.41,1579.489,2590.347,1584.067,2595.789L1584.067,2595.789z"/>
				</g>
			</g>
			<g>
				<g>
					<path style="fill:#371A45;" d="M1075.974,2964.739c166.652,15.593,251.317,194.76,208.333,345.991       c-12.857,48.777-36.676,94.223-69.466,131.081c-2.039,2.292-5.547,2.498-7.839,0.459c-1.995-1.775-2.395-4.683-1.123-6.914       c23.628-41.497,40.498-85.789,48.662-131.267c26.294-139.377-38.811-283.858-181.098-325.875       C1065.744,2975.993,1067.802,2964.047,1075.974,2964.739L1075.974,2964.739z"/>
				</g>
			</g>
			<g>
				<g>
					<path style="fill:#FCAC38;" d="M1173.692,3302.128c-11.699,57.621-44.012,104.975-86.273,134.104H890.6       c-59.611-43.295-91.366-124.713-74.414-208.597c22.284-110.307,120.415-183.05,219.182-162.517       C1134.057,3085.73,1195.975,3191.82,1173.692,3302.128z"/>
				</g>
			</g>
			<g>
				<g>
					<path style="fill:#FFD243;" d="M1152.216,3341.475c-19.301,42.253-49.006,74.741-82.954,94.772H962.215       c-53.341-59.866-66.345-159.338-26.237-247.357c25.917-56.672,68.672-97.465,116.355-116.903       c12.046,2.555,23.91,6.844,35.272,12.913C1168.415,3127.7,1197.344,3242.55,1152.216,3341.475z"/>
				</g>
			</g>
			<g>
				<g>
					<path style="fill:#371A45;" d="M860.325,3439.365c-19.507-9.8-34.476-28.358-41.182-49.013       c-1.764-5.557,5.529-9.796,9.483-5.623c7.257,7.352,13.568,14.81,20.261,21.941c5.945,6.537,14.322,15.053,19.858,21.919       C873.433,3434.217,866.808,3442.537,860.325,3439.365L860.325,3439.365z"/>
				</g>
			</g>
			<g>
				<g>
					<path style="fill:#371A45;" d="M817.71,3191.182c41.95-106.46,173.168-171.901,277.369-110.046       c88.802,52.718,107.977,170.569,63.671,259.079c-6.684,14.299-15.024,27.708-24.497,40.173       c-19.106,24.785-43.076,45.71-70.369,59.836c-5.934,2.975-11.215-5.258-5.91-9.331       c66.965-50.848,105.339-140.839,85.232-223.32c-6.906-28.941-21.674-56.617-43.662-76.914       c-55.79-53.953-144.145-46.499-204.292-2.989c-26.141,18.345-47.649,42.151-65.303,69.689       C825.683,3204.428,814.53,3198.924,817.71,3191.182L817.71,3191.182z"/>
				</g>
			</g>
			<g>
				<g>
					<path style="fill:#371A45;" d="M1768.821,3443.079c-30.276-28.596-47.888-67.799-58.714-107.251       c-3.449-13.062-6.067-26.309-7.312-39.761c-0.251-2.708,1.741-5.103,4.446-5.354c2.083-0.193,3.987,0.957,4.866,2.725       l17.341,35.105c16.924,33.823,36.067,66.442,59.177,96.177C1798.636,3437.881,1781.095,3454.032,1768.821,3443.079       L1768.821,3443.079z"/>
				</g>
			</g>
			<g>
				<g>
					<path style="fill:#371A45;" d="M2502.449,3212.302c17.082,77.811,4.401,165.067-44.671,229.25       c-10.542,13.956-31.715-0.284-22.697-15.308c9.919-15.991,19.177-32.043,26.872-48.594       c15.49-33.538,22.9-70.695,27.488-107.383c2.142-18.746,3.32-37.736,3.55-56.973       C2492.993,3207.763,2501.3,3206.838,2502.449,3212.302L2502.449,3212.302z"/>
				</g>
			</g>
			<g>
				<g>
					<path style="fill:#FCAC38;" d="M2226.866,3436.232h-254.361c-69.081-39.475-118.743-110.626-127.577-195.864       c-14.644-140.71,87.546-266.537,228.256-281.181c140.709-14.564,266.537,87.625,281.18,228.256       C2365.109,3291.463,2312.104,3387.365,2226.866,3436.232z"/>
				</g>
			</g>
			<g>
				<g>
					<path style="fill:#FFD243;" d="M2365.189,3278.012c-11.222,67.092-52.449,123.201-109.193,158.219h-280.147       c-50.856-31.676-87.546-79.826-102.588-134.9c37.884-121.927,168.883-202.151,308.081-183.05       c78.633,10.904,144.292,51.095,186.075,106.885C2368.849,3242.437,2368.213,3260.185,2365.189,3278.012z"/>
				</g>
			</g>
			<g>
				<g>
					<path style="fill:#371A45;" d="M2132.441,2962.043c110.099,9.248,212.421,97.785,226.388,210.023       c14.439,92.132-34.777,187.455-113.154,235.867c-114.354,73.854-276.785,51.144-362.201-56.269       c-73.227-88.919-70.227-220.441,10.36-303.476c4.733-4.816,12.158,1.755,8.009,7c-16.035,20.268-28.62,42.971-36.938,66.975       c-16.521,47.588-16.076,100.78,2.678,147.395c68.638,173.533,320.701,197.944,424.807,45.369       c58.373-84.367,44.459-198.332-28.8-269.881c-35.35-35.762-82.528-59.68-133.065-69.937       C2122.411,2973.467,2124.157,2961.344,2132.441,2962.043L2132.441,2962.043z"/>
				</g>
			</g>
			<g>
				<g>
					<g>
						<path style="fill:#FFD243;" d="M2486.705,2735.134c44.842-29.499,78.203-69.412,94.304-117.783        c29.177-87.653-6.381-177.889-82.733-252.929c-50.092-49.232-118.341-89.708-198.771-113.5        c-203.022-60.056-406.774,8.933-455.092,154.092c-17.979,54.014-11.904,110.964,13.273,164.279        c42.486,89.967,140.753,164.441,268.23,202.15"/>
					</g>
				</g>
				<g>
					<g>
						<path style="fill:#371A45;" d="M2574.504,2615.186c23.401-82.364-15.669-166.066-73.31-224.685        c-116.537-118.599-300.306-169.261-461.714-131.223c-80.304,19.678-158.033,67.885-189.827,147.48        c-1.127,2.85-4.374,4.238-7.215,3.088c-2.627-1.062-3.992-3.911-3.267-6.577c5.833-21.506,15.256-42.249,27.832-60.994        c37.891-56.69,100.01-93.64,164.341-112.629c206.082-61.844,490.62,41.353,561.017,256.068        c6.307,21.93,9.698,44.85,8.888,67.657c-0.676,22.8-5.491,45.3-13.738,66.143c-1.394,3.525-5.383,5.254-8.909,3.86        C2575.316,2622.071,2573.595,2618.515,2574.504,2615.186L2574.504,2615.186z"/>
					</g>
				</g>
				<g>
					<g>
						
							<ellipse transform="matrix(0.1606 -0.987 0.987 0.1606 -622.8167 4293.5391)" style="fill:#FCAC38;" cx="2212.796" cy="2512.928" rx="211.638" ry="291.202"/>
					</g>
				</g>
				<g>
					<g>
						
							<ellipse transform="matrix(0.0798 -0.9968 0.9968 0.0798 -429.4471 4445.7476)" style="fill:#FFD243;" cx="2193.219" cy="2455.474" rx="155.65" ry="246.851"/>
					</g>
				</g>
				<g>
					<g>
						<path style="fill:#371A45;" d="M2007.756,2347.058c-66.698,47.425-90.182,128.367-52.33,201.785        c60.386,115.142,203.919,170.481,329.121,161.964c98.697-5.61,208.607-68.212,198.982-178.745        c-12.549-106.543-110.801-179.107-206.485-213.073c-6.553-2.266-3.592-12.213,3.131-10.59        c106.414,26.06,217.375,104.27,233.68,220.385c12.718,94.73-56.51,172.334-142.221,200.964        c-81.18,28.756-171.987,23.166-252.113-5.307c-104.895-37.361-211.296-128.32-207.97-248.508        c1.522-29.395,10.843-58.245,26.795-82.407c15.739-23.986,37.477-43.427,61.875-57.92        C2007.861,2331.242,2014.693,2341.936,2007.756,2347.058L2007.756,2347.058z"/>
					</g>
				</g>
			</g>
			<g>
				<g>
					<path style="fill:#FFD243;" d="M3057.835,3436.232h-224.833c38.917-63.988,89.695-106.726,136.332-107.841       C3017.324,3327.198,3049.318,3370.254,3057.835,3436.232z"/>
				</g>
			</g>
			<g>
				<g>
					<path style="fill:#371A45;" d="M3112.534,3375.723c-36.795-49.097-88.153-67.584-144.905-46.993       c-54.866,20.084-98.766,63.144-137.963,107.155c-3.976,4.731-11.928-0.168-9.358-5.869       c36.721-87.387,137.915-176.538,237.957-135.125c16.257,7.242,30.58,18.184,41.718,31.156       c11.055,13.074,19.482,27.725,24.646,43.22c1.213,3.645-0.757,7.581-4.399,8.794       C3117.361,3379.016,3114.294,3377.976,3112.534,3375.723L3112.534,3375.723z"/>
				</g>
			</g>
			<g style="opacity:0.6;">
				<g>
					<path style="fill:#FFFFFF;" d="M2682.619,2604.642c6.339,154.433,258.757,281.022,356.759,682.386       c41.573,170.261,180.445-24.143,43.831-343.437C2956.592,2647.663,2678.151,2495.792,2682.619,2604.642z"/>
				</g>
			</g>
			<g style="opacity:0.6;">
				<g>
					<path style="fill:#FFFFFF;" d="M2304.05,2396.025c35.872,45.309,147.677,61.014,246.967,127.216       c106.151,70.776,182,10.108,21.972-140.097C2402.405,2223.031,2236.426,2310.612,2304.05,2396.025z"/>
				</g>
			</g>
			<g>
				<g>
					<path style="fill:#371A45;" d="M722.272,3453.73c-9.658,0-17.49-7.827-17.5-17.485c-0.068-77.583,6.919-155.542,20.776-231.704       c25.303-139.048,73.223-272.729,142.432-397.344c106.68-191.895,260.864-354.229,445.879-469.453       c28.682-17.969,58.599-35.044,88.892-50.732c161.807-83.936,343.457-133.696,525.307-143.896l2.197-0.122       c0.952-0.063,1.904-0.117,2.856-0.156c11.816-0.645,22.876-1.084,33.555-1.338c21.763-0.596,44.331-0.61,67.051-0.068       c155.693,3.921,307.749,35.664,451.973,94.341c48.745,19.717,96.968,42.778,143.281,68.521       c9.688,5.425,19.941,11.201,30.049,17.251c5.874,3.433,11.836,7.09,17.734,10.752       c191.191,116.919,349.326,282.329,457.212,478.281c105.083,190.864,160.83,406.836,161.211,624.565       c0.01,4.644-1.831,9.102-5.112,12.393c-3.281,3.286-7.734,5.137-12.378,5.137l-2555.405,1.06       C722.277,3453.73,722.272,3453.73,722.272,3453.73z M2001.223,2176.04c-11.367,0-22.617,0.151-33.667,0.449       c-10.381,0.244-21.089,0.674-32.798,1.309l-2.329,0.127c-0.879,0.054-1.758,0.107-2.637,0.146       c-176.719,9.912-353.477,58.335-510.938,140.015c-29.453,15.259-58.54,31.855-86.45,49.341       c-180.029,112.119-330.029,270.059-433.833,456.768c-67.339,121.26-113.97,251.338-138.589,386.611       c-12.436,68.369-19.189,138.228-20.102,207.92l2520.151-1.05c-6.616-435.034-230.576-828.662-601.636-1055.581       c-5.732-3.56-11.431-7.061-17.192-10.43c-9.863-5.903-19.868-11.533-29.282-16.807c-45.02-25.024-91.934-47.461-139.39-66.65       c-140.327-57.095-288.242-87.974-439.673-91.787C2022.262,2176.167,2011.691,2176.04,2001.223,2176.04z"/>
				</g>
			</g>
		</g>
		<g>
			<g>
				<g>
					<path style="fill:#FFFFFF;" d="M2588.572,1912.266c-2.664,56.912-9.251,110.287-20.198,153.347       c-8.67,34.002-35.988,59.769-70.474,66.211c-38.506,7.217-97.597,11.77-176.111-0.727l-56.524-696.792       c0,0,61.755-5.522,127.724,3.245c45.723,6.054,93.432,18.938,124.14,45.191       C2568.229,1526.478,2596.903,1736.348,2588.572,1912.266z"/>
				</g>
				<g>
					<path style="fill:#371A45;" d="M2416.359,2154.853c-28.052,0-60.503-2.163-97.08-7.983       c-7.275-1.157-12.813-7.139-13.408-14.482l-56.523-696.792c-0.708-8.74,5.762-16.416,14.497-17.197       c2.593-0.229,64.287-5.581,131.25,3.32c59.067,7.822,103.618,24.268,132.412,48.882       c58.154,49.78,85.254,268.403,77.017,442.412l0,0c-2.817,60.307-9.966,114.438-20.669,156.533       c-10.161,39.849-42.749,70.449-83.018,77.979C2480.104,2151.411,2451.74,2154.853,2416.359,2154.853z M2336.681,2117.177       c71.924,10.039,125.439,5.107,158.276-1.05c28.105-5.254,50.845-26.631,57.944-54.463       c10.176-40.029,16.997-91.953,19.717-150.147c0,0,0-0.005,0-0.01c8.579-181.196-22.817-379.78-65.874-416.636       c-24.014-20.532-62.998-34.492-115.85-41.494c-43.857-5.825-86.274-5.127-108.394-4.126L2336.681,2117.177z"/>
				</g>
			</g>
			<g style="opacity:0.2;">
				<g>
					<path style="fill:#371A45;" d="M2588.572,1912.266c-2.664,56.912-9.251,110.287-20.198,153.347       c-8.67,34.002-35.988,59.769-70.474,66.211c-38.506,7.217-97.597,11.77-176.111-0.727l-56.524-696.792       c0,0,61.755-5.522,127.724,3.245C2331.186,1517.808,2150.231,1802.22,2588.572,1912.266z"/>
				</g>
			</g>
			<g>
				<g>
					<path style="fill:#371A45;" d="M2475.939,2003.164c-22.227,0-42.148-15.674-46.611-38.198       c-3.672-18.54-6.021-37.793-6.987-57.222c-0.435-8.809,6.353-16.304,15.161-16.743c8.755-0.43,16.304,6.348,16.743,15.161       c0.884,17.881,3.042,35.576,6.411,52.598c1.66,8.35,9.858,13.848,18.286,12.168l49.331-9.6       c5.938-1.152,10.605-5.561,12.188-11.509c19.453-73.066,9.771-162.397,4.707-197.412c-0.303-2.1-2.09-3.638-4.194-3.638       c-0.054,0-0.107,0-0.166,0c-60.957,2.373-70.859,4.624-71.792,4.878c-8.496,2.28-17.285-2.744-19.585-11.245       c-2.3-8.501,2.686-17.256,11.182-19.57c3.076-0.84,12.432-3.393,78.96-5.976c18.394-0.82,34.546,12.593,37.207,30.976       c5.347,36.963,15.518,131.436-5.449,210.2c-4.683,17.593-19.189,31.196-36.953,34.653l-49.336,9.6       C2481.989,2002.876,2478.942,2003.164,2475.939,2003.164z"/>
				</g>
			</g>
			<g>
				<g>
					<path style="fill:#FFFFFF;" d="M2537.279,1871.629c-8.476,34.389-41.703,101.666-171.897,63.595       c0,0,72.653,176.789-38.748,360.844c-83.6,138.089-129.904,298.896-147.825,370.628c-9.493,37.877-33.905,70.813-68.488,89.025       c-26.107,13.755-58.317,19.906-91.253-0.339c-75.995-46.692-76.722-65.485-76.722-66.211c0,0-41.461,2.374-75.414-10.511       l-0.049-0.048c-21.263-8.04-39.572-22.086-42.817-46.449c-0.194-1.162-0.291-2.325-0.387-3.536       c-2.035-28.044,6.103-51.681,20.44-69.699c19.713-25.089,51.293-39.281,83.697-39.281c0,0,38.361-161.435,67.422-251.041       l-99.486-4.553l-0.048-0.048l-5.812-0.242c0,0-111.401,244.599-153.782,377.796c0,0-5.231,41.993-142.497,30.659       c-112.564-9.251-191.998-21.796-219.122-54.054c-0.097-0.145-0.146-0.242-0.242-0.339c-5.812-6.975-9.154-14.869-9.881-23.879       c-4.02-50.857,33.905-117.892,137.218-93.674c15.79-122.687,38.991-233.652,89.606-301.074l-19.083-432.383       c0,0,39.572-188.413,184.151-235.638c144.531-47.224,513.851-36.327,513.851-36.327s115.034,19.326,184.055,134.99       c31.241,52.31,51.778,103.07,64.952,142.885v0.145c9.978,30.224,15.741,54.103,18.599,67.762       C2539.894,1850.898,2539.797,1861.457,2537.279,1871.629z"/>
				</g>
				<g>
					<path style="fill:#371A45;" d="M2063.381,2784.341c-18.291,0-36.02-5.117-52.676-15.356       c-40.811-25.068-67.388-46.699-78.457-63.677c-15.576-0.127-44.971-1.846-70.982-11.719c-0.322-0.122-0.635-0.249-0.942-0.391       c-38.35-14.824-49.497-40-52.051-58.677c-0.244-1.514-0.386-3.032-0.513-4.609c-2.217-30.591,6.04-58.53,23.862-80.928       c19.761-25.146,50.313-41.338,83.457-44.668c8.613-35.547,35.498-144.8,58.701-220.708l-73.809-3.374       c-21.084,46.836-111.274,249.209-148.306,365.098c-2.949,15.059-23.735,54.009-159.37,42.803       c-119.268-9.805-199.356-23.213-230.029-59.692c-0.244-0.288-0.474-0.586-0.698-0.889c-7.739-9.478-12.153-20.347-13.12-32.324       c-2.749-34.81,10.669-68.516,35.899-90.19c18.374-15.781,50.806-31.782,103.623-23.672       c14.014-103.691,36.006-215.581,87.017-287.07l-18.838-426.777c-0.059-1.338,0.054-2.676,0.327-3.984       c1.694-8.062,43.213-198.017,194.819-247.539c145.503-47.544,504.092-37.554,519.282-37.109c0.732,0.02,1.46,0.093,2.178,0.21       c4.995,0.84,123.145,21.938,195.122,142.559c26.89,45.024,49.229,94.165,66.396,146.055c0.127,0.381,0.239,0.771,0.337,1.162       c10.522,32.012,16.25,56.606,18.735,68.481c2.715,12.793,2.524,25.625-0.566,38.115c-5.449,22.09-18.77,52.344-51.284,71.065       c-28.711,16.533-66.304,20.234-112.002,11.103c16.24,58.794,39.746,199.751-49.199,346.704       c-83.75,138.335-129.995,302.192-145.991,366.226c-10.83,43.188-38.726,79.37-76.543,99.287       C2099.43,2779.511,2081.139,2784.341,2063.381,2784.341z M1958.078,2686.426c1.377,2.832,11.538,19.829,69.351,55.347       c23.325,14.336,48.003,14.282,75.444-0.181c29.795-15.688,51.826-44.404,60.444-78.779       c20.303-81.27,66.748-238.066,149.653-375.015c105.664-174.58,38.325-344.824,37.632-346.524       c-2.314-5.679-1.177-12.188,2.93-16.738c4.106-4.546,10.439-6.377,16.333-4.639c50.117,14.649,89.038,14.302,115.693-1.05       c22.764-13.1,32.256-34.985,36.211-51.04c0.005-0.005,0.005-0.01,0.005-0.015c1.924-7.764,2.031-15.786,0.317-23.848       c-2.383-11.387-7.9-35.049-18.145-66.069c-0.122-0.376-0.229-0.747-0.327-1.128c-16.392-49.312-37.642-95.976-63.169-138.721       c-60.928-102.109-161.196-125.039-172.065-127.251c-23.755-0.63-371.084-8.892-507.168,35.581       c-126.572,41.343-168.516,202.783-173.062,221.914l18.989,430.225c0.161,3.696-0.962,7.334-3.184,10.293       c-51.855,69.072-72.847,187.139-86.538,293.525c-0.576,4.478-3.027,8.506-6.738,11.084c-3.721,2.578-8.35,3.457-12.749,2.422       c-39.643-9.277-71.719-4.634-92.773,13.447c-20.635,17.725-26.382,44.385-24.873,63.418c0.449,5.615,2.432,10.361,6.23,14.917       l-0.005,0.005c0.186,0.225,0.371,0.454,0.547,0.688c25.332,29.243,114.839,40.356,207.857,48.003       c107.075,8.853,124.355-16.128,125.625-18.311c0.098-0.43,0.215-0.854,0.347-1.274       c42.183-132.573,153.345-377.119,154.463-379.575c2.695-5.913,8.716-9.58,15.205-9.336l5.815,0.244       c0.43,0.02,0.854,0.054,1.275,0.107l98.315,4.497c4.98,0.225,9.565,2.764,12.402,6.86c2.837,4.092,3.599,9.277,2.061,14.019       c-28.525,87.964-66.694,248.203-67.075,249.81c-1.709,7.197-8.14,12.28-15.537,12.28c-28.218,0-54.815,12.402-71.138,33.174       c-12.803,16.094-18.687,36.357-17.07,58.682c0.049,0.61,0.093,1.328,0.21,2.041c0.034,0.181,0.059,0.361,0.083,0.542       c0.737,5.537,2.983,22.402,32.632,33.613c0.293,0.107,0.586,0.229,0.869,0.356c30.117,11.138,67.671,9.233,68.047,9.194       c4.473-0.186,8.677,1.333,11.865,4.351C1955.827,2679.951,1957.487,2683.061,1958.078,2686.426z M1958.317,2689.121       c0,0.015,0,0.034,0,0.049C1958.317,2689.155,1958.317,2689.14,1958.317,2689.121z M1958.317,2689.092c0,0.005,0,0.01,0,0.015       C1958.317,2689.101,1958.317,2689.096,1958.317,2689.092z M1720.27,2639.541c-0.005,0.01-0.005,0.024-0.01,0.039       C1720.265,2639.565,1720.265,2639.551,1720.27,2639.541z M1720.275,2639.497c-0.005,0.01-0.005,0.024-0.005,0.039       C1720.27,2639.521,1720.27,2639.507,1720.275,2639.497z M1720.28,2639.453c-0.005,0.01-0.005,0.024-0.005,0.034       C1720.275,2639.477,1720.275,2639.463,1720.28,2639.453z M1720.285,2639.419c0,0.005-0.005,0.01-0.005,0.015       C1720.285,2639.428,1720.285,2639.424,1720.285,2639.419z"/>
				</g>
			</g>
			<g>
				<g>
					<g>
						<path style="fill:#B1B1BA;" d="M2231.361,2087.795l-253.802,131.406c-11.382,5.909-24.218,8.428-37.004,7.265l-412.815-37.054        l-32.5-2.905c-23.879-2.132-44.609-17.34-53.812-39.476l-131.986-317.348c-4.262-10.171-2.809-21.796,3.73-30.611        l21.07-28.529c6.006-8.137,15.547-12.835,25.622-12.689l441.682,6.538c20.343,0.291,38.361,13.223,45.19,32.404        l79.482,223.578l285.285,19.617l13.804,0.968L2231.361,2087.795z"/>
					</g>
				</g>
				<g style="opacity:0.61;">
					<g>
						<path style="fill:#FFFFFF;" d="M1357.78,1805.562c-6.539,8.816-7.943,20.44-3.73,30.611l131.987,317.349        c6.829,16.468,20.101,29.11,36.278,35.406l-27.075-2.422c-23.879-2.132-44.609-17.34-53.812-39.476l-131.986-317.348        c-4.262-10.171-2.809-21.796,3.73-30.611l21.07-28.529c6.006-8.137,15.547-12.835,25.622-12.689l441.682,6.538        c8.234,0.097,16.081,2.277,22.958,6.151l-420.032-6.199c-10.075-0.145-19.617,4.601-25.623,12.69L1357.78,1805.562z"/>
					</g>
				</g>
				<g>
					<g>
						<path style="fill:#371A45;" d="M1946.618,2242.729c-2.485,0-4.971-0.112-7.466-0.332l-445.322-39.966        c-29.902-2.686-55.64-21.572-67.168-49.292l-131.987-317.324c-6.343-15.249-4.184-32.974,5.635-46.25l21.074-28.516        c9.038-12.232,23.657-19.541,38.716-19.165l441.655,6.523c26.904,0.4,51.035,17.695,60.044,43.047l75.962,213.706        l288.642,19.863c7.593,0.523,13.765,6.333,14.741,13.887l6.055,46.821c0.859,6.655-2.534,13.14-8.496,16.226l-253.813,131.44        C1973.015,2239.551,1959.914,2242.729,1946.618,2242.729z M1359.396,1773.818c-4.849,0-9.443,2.31-12.324,6.216        l-21.079,28.516c-3.184,4.307-3.882,10.054-1.826,15l131.987,317.324c6.958,16.729,22.485,28.125,40.527,29.741l0,0        l445.322,39.966c9.751,0.894,19.507-1.04,28.198-5.542l243.887-126.299l-2.944-22.749l-286.025-19.683        c-6.343-0.435-11.821-4.595-13.95-10.586l-79.468-223.574c-4.561-12.837-16.787-21.601-30.42-21.807l-441.655-6.524        C1359.548,1773.818,1359.469,1773.818,1359.396,1773.818z"/>
					</g>
				</g>
				<g>
					<g>
						<path style="fill:#371A45;" d="M1990.28,2228.603c-6.69,0-12.92-4.233-15.151-10.928l-64.063-192.251        c-2.788-8.369,1.733-17.412,10.103-20.2c8.374-2.793,17.412,1.738,20.2,10.103l64.063,192.251        c2.788,8.369-1.733,17.412-10.103,20.2C1993.654,2228.335,1991.95,2228.603,1990.28,2228.603z"/>
					</g>
				</g>
				<g>
					<g>
						<path style="fill:#371A45;" d="M1973.195,2173.437c-4.468,0-8.76-2.476-10.869-6.753c-2.959-5.996-0.493-13.257,5.503-16.216        l244.971-120.859c6.011-2.959,13.262-0.498,16.216,5.503c2.959,5.996,0.493,13.257-5.503,16.216l-244.971,120.859        C1976.818,2173.037,1974.992,2173.437,1973.195,2173.437z"/>
					</g>
				</g>
				<g>
					<g>
						<path style="fill:#371A45;" d="M1889.89,2233.926c-1.528,0-3.066-0.083-4.609-0.239c-6.65-0.693-11.484-6.641-10.796-13.296        c0.693-6.65,6.694-11.47,13.296-10.796c6.831,0.747,13.247-1.968,17.554-7.334c4.307-5.376,5.523-12.202,3.335-18.735        l-108.208-323.408c-4.839-14.458-18.33-24.17-33.569-24.17l-421.689-7.412c-4.961-0.122-9.507,2.183-12.422,6.235        c-2.91,4.053-3.613,9.072-1.929,13.77l3.018,8.423c2.256,6.294-1.021,13.227-7.319,15.483        c-6.284,2.246-13.227-1.025-15.483-7.319l-3.018-8.423c-4.336-12.119-2.446-25.596,5.059-36.055        c7.5-10.459,19.751-16.743,32.525-16.328l421.475,7.407c25.454,0,48.174,16.357,56.323,40.703l108.208,323.408        c4.775,14.277,2.007,29.814-7.407,41.563C1915.788,2227.939,1903.2,2233.921,1889.89,2233.926z"/>
					</g>
				</g>
				<g>
					<g>
						<path style="fill:#371A45;" d="M1843.43,1784.583l-43.145,36.802l23.855-51.445        C1833.798,1752.338,1857.783,1770.553,1843.43,1784.583L1843.43,1784.583z"/>
					</g>
				</g>
				<g>
					<g>
						<path style="fill:#371A45;" d="M1689.465,1994.557c0,47.903-35.358,86.748-78.998,86.748c-16.381,0-31.608-5.488-44.219-14.87        c-6.447-4.796-4.381-14.671,3.398-16.685c28.994-7.504,50.218-31.742,50.218-60.52c0-25.33-16.485-47.171-40.231-57.148        c-7.477-3.141-8.172-13.568-0.864-17.085c9.686-4.661,20.405-7.236,31.699-7.236        C1654.108,1907.761,1689.465,1946.607,1689.465,1994.557z"/>
					</g>
				</g>
				<g style="opacity:0.61;">
					<g>
						<path style="fill:#FFFFFF;" d="M1699.152,2009.088c0,47.903-35.358,86.748-78.998,86.748        c-16.371,0-31.628-5.473-44.221-14.869c-3.536-2.616-4.505-6.781-3.391-10.317c11.237,6.781,24.169,10.656,37.925,10.656        c43.64,0,78.998-38.845,78.998-86.748c0-15.935-3.923-30.901-10.801-43.737        C1691.451,1966.223,1699.152,1986.663,1699.152,2009.088z"/>
					</g>
				</g>
				<g style="opacity:0.2;">
					<g>
						<path style="fill:#371A45;" d="M2231.361,2086.592l-253.802,131.406c-11.382,5.909-24.218,8.428-37.004,7.265l-412.815-37.054        l-0.291-0.484c19.374-5.91,316.429-41.364,272.837-351.351l43.592-21.166l89.024,224.062c0,0,31.338,115.761,153.153,60.399        c54.538-24.75,96.096-45.53,125.448-60.883l13.804,0.968L2231.361,2086.592z"/>
					</g>
				</g>
			</g>
			<g>
				<g>
					<path style="fill:#371A45;" d="M1929.299,2503.76c55.697,12.258,107.906,37.51,153.123,71.804       c-12.503-6.04-25.03-11.782-37.974-16.406c-37.679-13.796-78.094-22.652-118.081-23.594       C1903.09,2534.707,1906.198,2500.364,1929.299,2503.76L1929.299,2503.76z"/>
				</g>
			</g>
			<g>
				<g>
					<path style="fill:#371A45;" d="M1934.778,2675.132c23.567-6.244,46.596-5.097,70.349-5.118       c-14.986,7.399-29.828,15.129-43.665,24.19c-4.36,2.913-8.811,6.064-11.514,9.036c-6.255,6.875-16.899,7.38-23.774,1.125       C1915.676,2694.895,1921.185,2677.689,1934.778,2675.132L1934.778,2675.132z"/>
				</g>
			</g>
			<g>
				<g>
					<path style="fill:#371A45;" d="M1506.052,2484.951c31.772,15.452,64.272,29.757,93.228,50.048       c-8.225-2.97-16.661-4.894-25.149-6.725c-25.404-5.283-51.358-9.219-76.982-12.649c-8.85-1.15-15.093-9.258-13.943-18.108       C1484.406,2486.836,1496.42,2480.29,1506.052,2484.951L1506.052,2484.951z"/>
				</g>
			</g>
			<g>
				<g>
					<path style="fill:#371A45;" d="M1806.725,2458.139c-7.485,0-14.17-5.288-15.654-12.915       c-10.107-51.846-40.561-94.204-85.747-119.272c-46.885-26.016-104.009-30.4-152.813-11.753       c-8.232,3.154-17.471-0.977-20.62-9.214c-3.149-8.242,0.977-17.471,9.214-20.62c57.5-21.987,124.688-16.88,179.717,13.657       c53.574,29.727,89.653,79.829,101.597,141.089c1.689,8.657-3.96,17.046-12.617,18.73       C1808.771,2458.042,1807.741,2458.139,1806.725,2458.139z"/>
				</g>
			</g>
			<g>
				<g>
					<path style="fill:#371A45;" d="M1889.899,2279.731c-3.467,0-6.914-1.128-9.751-3.311c-8.775-4.834-65.654-28.423-116.9-48.97       c-8.188-3.281-12.163-12.583-8.882-20.767c3.281-8.188,12.583-12.163,20.767-8.882       c121.372,48.662,124.082,52.056,127.227,55.977c5.508,6.89,4.395,16.938-2.49,22.451       C1896.921,2278.584,1893.4,2279.731,1889.899,2279.731z M1877.443,2273.764c0,0.005,0.005,0.01,0.005,0.01       S1877.443,2273.769,1877.443,2273.764z M1877.419,2273.74c0.005,0.005,0.015,0.01,0.02,0.02       C1877.433,2273.75,1877.424,2273.745,1877.419,2273.74z"/>
				</g>
			</g>
			<g>
				<g>
					<path style="fill:#371A45;" d="M2237.834,2470.244c-5.337,0-10.552-2.676-13.579-7.544       c-30.693-49.39-115.532-158.35-239.936-103.594c-8.086,3.54-17.5-0.117-21.055-8.184c-3.55-8.076,0.112-17.5,8.184-21.055       c102.207-44.971,206.846-1.631,279.936,115.977c4.653,7.49,2.358,17.334-5.137,21.992       C2243.625,2469.468,2240.71,2470.244,2237.834,2470.244z"/>
				</g>
			</g>
			<g>
				<g>
					<path style="fill:#371A45;" d="M2184.928,1955.839c-5.952,0-12.163-0.708-18.589-2.314       c-32.69-8.169-63.911-22.549-85.645-39.448c-19.346-15.029-30.156-38.228-29.888-62.754       c-11.304,9.668-22.324,18.735-27.666,22.109c-10.561,6.68-24.941,5.957-36.646-1.836c-7.807-5.2-25.293-21.24-19.111-57.847       c8.286-49.082,103.174-101.436,122.109-111.431c23.228-12.266,112.52-5.522,151.226-1.894l85.356-5.039       c1.035-0.068,2.09-0.029,3.115,0.122c43.301,5.952,78.052,34.19,95.342,77.481c22.422,56.142,11.382,124.365-28.125,173.804       c-5.503,6.885-15.552,8.013-22.446,2.505c-0.146-0.117-0.293-0.239-0.435-0.361c-3.447,2.056-7.656,2.808-11.865,1.812       l-109.521-26.084C2240.7,1936.093,2216.374,1955.839,2184.928,1955.839z M2073.346,1794.311c2.666,0,5.352,0.669,7.793,2.036       c5.962,3.335,9.141,10.088,7.91,16.807l-5.479,29.956c-3.228,17.691,3.179,35.22,16.724,45.747       c18.091,14.063,45.674,26.655,73.789,33.682c32.817,8.208,59.814-25.146,60.088-25.488c3.848-4.834,10.2-7.066,16.23-5.635       l118.662,28.257c2.173,0.518,4.131,1.455,5.82,2.71c29.185-39.692,37.28-94.243,19.985-137.549       c-12.896-32.28-37.197-52.637-68.535-57.466l-84.951,5.015c-0.815,0.049-1.636,0.039-2.446-0.044       c-55.747-5.264-123.12-7.222-134.575-1.753c-48.164,25.43-101.533,65.098-105.483,88.482       c-1.89,11.196-0.508,20.181,3.799,24.658c1.699,1.767,3.32,2.217,4.038,2.29c8.525-5.757,38.55-31.992,55.957-47.617       C2065.676,1795.703,2069.494,1794.311,2073.346,1794.311z"/>
				</g>
			</g>
			<g>
				<g>
					<path style="fill:#371A45;" d="M2238.11,1915.491l-27.82-38.142l8.062-1.528l-17.354,27.703l8.257-31.628       c1.128-3.846,5.45-4.153,8.062-1.531l37.971,28.054C2269.707,1910.309,2249.937,1929.996,2238.11,1915.491L2238.11,1915.491z"/>
				</g>
			</g>
			<g>
				<g>
					<polygon style="fill:#371A45;" points="2218.125,1721.643 2200.999,1648.633 2244.597,1709.648 2218.125,1721.643      "/>
				</g>
			</g>
			<g>
				<g>
					<polygon style="fill:#371A45;" points="1719.155,1757.852 1733.687,1689.802 1748.218,1757.852 1719.155,1757.852      "/>
				</g>
			</g>
			<g>
				<g>
					<path style="fill:#371A45;" d="M1846.291,1799.013c-8.555,0-15.635-6.773-15.952-15.391       c-0.318-8.813,6.567-16.221,15.381-16.543l159.028-5.781c8.896-0.332,16.216,6.563,16.543,15.381       c0.317,8.813-6.567,16.221-15.381,16.543l-159.028,5.781C1846.682,1799.009,1846.486,1799.013,1846.291,1799.013z"/>
				</g>
			</g>
			<g>
				<g>
					<path style="fill:#371A45;" d="M1909.509,1987.92c-7.759,0-14.199-6.133-14.512-13.955       c-0.318-8.017,5.923-14.775,13.945-15.098l158.486-6.309c9.028-0.357,16.104-7.72,16.104-16.758v-28.848       c0-8.027,6.504-14.531,14.531-14.531s14.531,6.504,14.531,14.531v28.848c0,24.697-19.331,44.814-44.014,45.801l-158.486,6.309       C1909.899,1987.915,1909.704,1987.92,1909.509,1987.92z"/>
				</g>
			</g>
			<g>
				<g>
					<path style="fill:#371A45;" d="M1900.378,1944.897c-7.744,0-14.18-6.108-14.507-13.921c-0.342-8.017,5.884-14.79,13.906-15.127       l106.211-4.482c3.472-0.146,6.67-1.646,9.004-4.224c2.334-2.573,3.506-5.903,3.311-9.375l-2.783-48.984       c-0.454-8.013,5.669-14.878,13.682-15.332c8.008-0.386,14.873,5.669,15.332,13.682l2.783,48.984       c0.645,11.299-3.188,22.144-10.781,30.532c-7.598,8.389-18.013,13.276-29.326,13.75l-106.211,4.482       C1900.793,1944.892,1900.583,1944.897,1900.378,1944.897z"/>
				</g>
			</g>
			<g>
				<g>
					<path style="fill:#371A45;" d="M2040.168,1907.314l44.675,42.827l-59.299-17.715c-7.91-2.363-12.407-10.691-10.044-18.601       C2018.368,1903.253,2032.508,1899.63,2040.168,1907.314L2040.168,1907.314z"/>
				</g>
			</g>
			<g>
				<g>
					<path style="fill:#371A45;" d="M2479.995,1493.762c-18.014,19.036-43.211,30.492-69.423,31.361       C2428.548,1506.026,2453.804,1494.698,2479.995,1493.762L2479.995,1493.762z"/>
				</g>
			</g>
			<g style="opacity:0.3;">
				<g>
					<path style="fill:#000070;" d="M1844.12,2558.927c-5.715,23.734-12.399,48.872-20.052,73.235       c-0.194-1.162-0.291-2.325-0.387-3.536C1821.645,2600.582,1829.783,2576.945,1844.12,2558.927z"/>
				</g>
			</g>
			<g style="opacity:0.2;">
				<g>
					<path style="fill:#371A45;" d="M1895.703,2264.004l-5.812-0.242c0,0-111.401,244.599-153.782,377.796       c0,0-5.231,41.993-142.497,30.659c-112.564-9.251-191.998-21.796-219.122-54.054c-0.194-0.29-0.291-0.436-0.291-0.436       s38.603-62.772,159.691-23.491c121.089,39.233,142.884-93.965,142.884-93.965s125.932-214.229,56.912-292.356       L1895.703,2264.004z"/>
				</g>
			</g>
			<g style="opacity:0.2;">
				<g>
					<path style="fill:#371A45;" d="M2535.204,1872.836c-8.476,34.389-41.703,101.666-171.897,63.595       c0,0,72.653,176.789-38.748,360.844c-83.6,138.089-129.904,298.895-147.825,370.628c-9.493,37.877-33.905,70.813-68.488,89.025       c-26.107,13.755-58.316,19.906-91.252-0.34c-75.995-46.692-76.722-65.485-76.722-66.211c0,0-41.461,2.374-75.414-10.511       l-0.048-0.049c0,0,169.573,21.118,180.422-47.951c10.849-69.117,0-74.639,0-74.639s149.568-259.42,170.832-317.833       c21.312-58.365-9.396-76.867-9.396-76.867l-203.429,60.496l232.49-140.511l-6.442-94.11c0,0-96.968,10.802-127.143-47.369       l-19.374,21.554l-53.57-53.618l1.599-74.252l51.971-28.286c0,0,42.188,88.686,116.148,42.72l30.369-17.679       c0,0,300.445,79.773,287.755-57.396c9.978,30.224,15.741,54.103,18.599,67.762       C2537.82,1852.105,2537.723,1862.664,2535.204,1872.836z"/>
				</g>
			</g>
			<g style="opacity:0.2;">
				<g>
					<path style="fill:#371A45;" d="M1990.279,1642.578c0,0,288.306,69.021,386.388-107.769l-85.354-34.453"/>
				</g>
			</g>
			<g>
				<g>
					<g>
						<path style="fill:#FFFFFF;" d="M1528.68,1389.971c44.129,69.941,106.213,129.166,182.709,170.323        c15.603,8.385,31.748,16.025,48.472,22.838c8.126,3.339,16.448,6.457,24.888,9.442c25.482,8.862,51.202,15.546,77,20.15        c22.225,4.021,44.517,6.46,66.675,7.455c26.759,1.215,53.376,0.238,79.613-2.747c9.565-1.12,19.072-2.488,28.522-4.099        c172.897-29.865,325.458-148.432,388.934-323.352c93.56-257.656-41.664-539.912-301.949-630.471        c-50.143-17.406-101.311-26.518-151.855-27.867c-5.905-0.213-11.842-0.257-17.771-0.178        c-15.859,0.105-31.627,0.952-47.265,2.535c-36.166,3.675-71.661,11.247-105.833,22.383        c-34.175,11.095-67.108,25.799-98.107,43.774c-9.86,5.71-19.531,11.738-29.01,18.128        c-14.199,9.582-27.933,19.837-41.153,30.889c-65.962,54.829-118.601,127.088-149.749,212.93        C1428.972,1110.315,1450.868,1266.64,1528.68,1389.971z"/>
					</g>
					<g>
						<path style="fill:#371A45;" d="M1950.773,1622.094c-7.5,0-14.976-0.171-22.412-0.508c-22.529-1.011-45.029-3.525-66.86-7.476        c-26.045-4.648-52.026-11.445-77.217-20.205c-9.243-3.271-17.402-6.367-24.961-9.473c-16.401-6.68-32.754-14.385-48.604-22.9        c-74.736-40.21-138.096-99.277-183.232-170.811l0,0c-81.416-129.038-98.184-285.439-46.011-429.102        c30.146-83.091,82.075-156.929,150.171-213.53c12.861-10.757,26.748-21.177,41.269-30.972        c9.302-6.274,19.092-12.393,29.087-18.184c31.094-18.027,64.194-32.798,98.379-43.892        c34.512-11.245,70.215-18.794,106.128-22.446c15.61-1.577,31.558-2.436,47.397-2.544c6.323-0.083,12.173-0.02,17.832,0.185        c51.582,1.372,102.817,10.776,152.266,27.94c126.753,44.102,227.993,134.502,285.078,254.56        c56.631,119.107,62.93,253.252,17.729,377.725c-61.338,169.048-210.786,293.296-390.015,324.258        c-9.38,1.601-18.999,2.983-28.599,4.111C1989.103,1621.001,1969.87,1622.094,1950.773,1622.094z M1529.87,1389.218        c44.878,71.123,107.876,129.854,182.188,169.834c15.757,8.467,32.021,16.128,48.335,22.774        c7.515,3.086,15.635,6.167,24.824,9.419c25.044,8.711,50.879,15.469,76.782,20.093c21.714,3.926,44.082,6.426,66.489,7.436        c26.235,1.172,52.944,0.264,79.385-2.744c9.551-1.118,19.121-2.495,28.452-4.082        c178.228-30.791,326.846-154.346,387.842-322.446c44.937-123.76,38.677-257.134-17.627-375.552        c-56.758-119.37-157.427-209.258-283.462-253.105c-49.17-17.075-100.122-26.421-151.431-27.793        c-5.62-0.2-11.416-0.264-17.71-0.176c-15.762,0.103-31.621,0.957-47.143,2.524c-35.708,3.633-71.221,11.143-105.542,22.319        c-33.994,11.04-66.914,25.728-97.832,43.657c-9.946,5.757-19.678,11.836-28.931,18.076        c-14.434,9.741-28.242,20.107-41.04,30.801c-67.71,56.284-119.346,129.707-149.326,212.329        C1432.248,1105.42,1448.923,1260.922,1529.87,1389.218z"/>
					</g>
				</g>
				<g style="opacity:0.2;">
					<g>
						<path style="fill:#371A45;" d="M2425.488,1289.968c-63.458,174.938-216.043,293.516-388.942,323.354        c-9.448,1.624-18.949,2.992-28.501,4.102c-26.243,2.998-52.857,3.954-79.612,2.76c-22.16-1.012-44.462-3.436-66.67-7.452        c-25.813-4.596-51.522-11.283-77.023-20.144c-8.423-3.014-16.742-6.112-24.884-9.436        c-16.726-6.823-32.856-14.493-48.467-22.865c-76.496-41.157-138.592-100.36-182.718-170.327        c-24.249-38.417-43.078-80.07-55.868-123.667c43.658,65.789,103.527,121.472,176.504,160.741        c15.595,8.415,31.741,16.042,48.467,22.865c8.112,3.337,16.432,6.435,24.883,9.436c25.501,8.861,51.21,15.548,76.994,20.159        c22.238,4.002,44.51,6.439,66.67,7.451c26.754,1.194,53.398,0.224,79.612-2.759c9.581-1.125,19.082-2.492,28.531-4.116        c172.899-29.838,325.455-148.402,388.943-323.353c37.064-102.049,38.194-207.947,9.921-304.25        C2456.225,977.232,2480.723,1137.893,2425.488,1289.968z"/>
					</g>
				</g>
				<g>
					<g>
						<path style="fill:#371A45;" d="M1950.768,1631.533c-7.642,0-15.254-0.171-22.832-0.513        c-22.949-1.03-45.869-3.594-68.115-7.617c-26.514-4.731-52.978-11.655-78.638-20.581c-9.438-3.335-17.749-6.489-25.449-9.653        c-16.685-6.797-33.34-14.643-49.482-23.315c-76.172-40.986-140.747-101.186-186.753-174.092l0,0        c-82.983-131.528-100.078-290.938-46.899-437.363c30.718-84.663,83.628-159.897,153.008-217.568        c13.096-10.947,27.241-21.563,42.026-31.538c9.482-6.396,19.458-12.632,29.639-18.525        c31.665-18.364,65.376-33.403,100.195-44.707c35.142-11.445,71.509-19.141,108.086-22.857        c15.908-1.611,32.153-2.481,48.291-2.588c6.445-0.083,12.422-0.029,18.237,0.186c52.461,1.397,104.653,10.977,155.02,28.457        c129.165,44.941,232.334,137.07,290.508,259.429c57.729,121.406,64.15,258.135,18.081,385        c-62.495,172.222-214.722,298.804-397.285,330.342c-9.561,1.631-19.341,3.037-29.107,4.18        C1989.826,1630.425,1970.222,1631.533,1950.768,1631.533z M1537.858,1384.179c44.009,69.751,105.791,127.344,178.672,166.558        c15.459,8.306,31.416,15.825,47.422,22.344c7.397,3.037,15.371,6.064,24.414,9.263c24.526,8.53,49.878,15.161,75.288,19.697        c21.323,3.857,43.272,6.309,65.259,7.3c25.767,1.167,51.953,0.264,77.896-2.69c9.351-1.099,18.76-2.451,27.93-4.014        c174.878-30.21,320.708-151.435,380.552-316.357c44.067-121.367,37.935-252.153-17.28-368.276        c-55.664-117.07-154.404-205.23-278.032-248.242c-48.252-16.748-98.242-25.923-148.579-27.266        c-5.562-0.205-11.192-0.269-17.339-0.181c-15.527,0.107-31.089,0.942-46.314,2.481        c-35.039,3.564-69.883,10.933-103.569,21.904c-33.374,10.835-65.674,25.249-96.021,42.847        c-9.766,5.649-19.312,11.616-28.384,17.739c-14.17,9.556-27.72,19.727-40.264,30.215        c-66.445,55.229-117.099,127.256-146.509,208.306C1442.131,1105.879,1458.478,1258.369,1537.858,1384.179L1537.858,1384.179z"/>
					</g>
				</g>
				<g>
					<g>
						<path style="fill:#371A45;" d="M1950.764,1634.682c-7.686,0-15.347-0.171-22.974-0.518        c-23.086-1.035-46.147-3.618-68.53-7.666c-26.67-4.756-53.296-11.724-79.111-20.703c-9.502-3.359-17.861-6.533-25.61-9.717        c-16.777-6.836-33.535-14.732-49.775-23.452c-76.65-41.245-141.631-101.821-187.925-175.186l0,0        c-83.506-132.358-100.708-292.773-47.197-440.117c30.908-85.185,84.146-160.889,153.955-218.916        c13.169-11.011,27.402-21.69,42.275-31.729c9.546-6.436,19.58-12.705,29.824-18.638        c31.856-18.472,65.771-33.604,100.801-44.976c35.347-11.514,71.939-19.253,108.74-22.993        c16.006-1.621,32.354-2.495,48.589-2.607c6.46-0.088,12.51-0.024,18.369,0.19c52.759,1.406,105.268,11.04,155.937,28.628        c129.971,45.22,233.779,137.925,292.324,261.05c58.086,122.173,64.551,259.761,18.193,387.427        c-62.876,173.281-216.035,300.64-399.707,332.368c-9.619,1.641-19.458,3.052-29.277,4.209        C1990.065,1633.564,1970.339,1634.682,1950.764,1634.682z M1540.519,1382.5c43.721,69.292,105.098,126.509,177.5,165.464        c15.361,8.252,31.216,15.723,47.119,22.202c7.358,3.023,15.283,6.03,24.277,9.209c24.355,8.472,49.541,15.063,74.795,19.57        c21.191,3.828,42.998,6.27,64.844,7.251c25.581,1.162,51.616,0.254,77.398-2.676c9.287-1.089,18.642-2.432,27.754-3.984        c173.765-30.019,318.667-150.464,378.125-314.331c43.779-120.566,37.686-250.493-17.163-365.85        c-55.298-116.304-153.398-203.887-276.226-246.621c-47.944-16.645-97.617-25.762-147.627-27.095        c-5.537-0.2-11.128-0.264-17.212-0.176c-15.449,0.102-30.913,0.933-46.04,2.466c-34.815,3.535-69.439,10.859-102.91,21.763        c-33.164,10.767-65.264,25.088-95.42,42.573c-9.702,5.62-19.189,11.548-28.203,17.627        c-14.077,9.497-27.539,19.6-40.005,30.024c-66.02,54.878-116.348,126.435-145.566,206.963        C1445.427,1106.025,1461.677,1257.524,1540.519,1382.5L1540.519,1382.5z"/>
					</g>
				</g>
				<g>
					<g>
						<path style="fill:#371A45;" d="M1609.751,1487.641c304.96,182.959,694.858,13.047,695.116-336.986        c0.176-238.141-235.867-420.529-467.554-404.439c-168.625,11.711-328.581,95.938-383.559,359.162        c0,0-6.137,120.109,31.347,197.373c37.484,77.264,87.193,146.07,87.193,146.07L1609.751,1487.641z"/>
					</g>
				</g>
				<g>
					<g>
						<path style="fill:#220F2D;" d="M2304.854,1150.659c-0.25,350.023-390.157,519.931-695.104,336.995l-7.586-7.877        c325.697,35.824,635.533-175.485,642.461-529.432C2282.484,1008.989,2304.896,1077.17,2304.854,1150.659z"/>
					</g>
				</g>
				<g>
					<g>
						<path style="fill:#371A45;" d="M1872.897,1626.836c-3.814,0-7.612-0.034-11.436-0.117l-2.173-0.215        c-26.699-4.761-53.325-11.728-79.141-20.708c-9.502-3.359-17.861-6.533-25.61-9.717        c-16.777-6.836-33.535-14.732-49.775-23.452c-76.65-41.245-141.631-101.821-187.925-175.186l0,0        c-83.506-132.358-100.708-292.773-47.197-440.117c30.908-85.185,84.146-160.889,153.955-218.916l1.108-0.918l1.27-0.674        c58.535-31.133,127.539-49.653,205.098-55.039c139.688-9.688,286.304,43.672,392.417,142.754        c95.591,89.253,148.184,204.966,148.086,325.825c-0.112,131.533-47.388,247.28-136.724,334.727        C2142.472,1575.512,2011.086,1626.836,1872.897,1626.836z M1863.132,1598.75c134.556,2.407,262.783-46.216,352.134-133.672        c83.838-82.07,128.203-190.908,128.311-314.741c0.088-113.008-49.346-221.445-139.194-305.342        c-100.547-93.877-239.36-144.439-371.367-135.288c-73.047,5.073-137.852,22.285-192.627,51.157        c-65.444,54.732-115.376,125.942-144.429,206.016c-50.532,139.146-34.282,290.644,44.561,415.62l0,0        c43.721,69.292,105.098,126.509,177.5,165.464c15.361,8.252,31.216,15.723,47.124,22.202        c7.354,3.023,15.278,6.03,24.272,9.209C1813.425,1587.724,1838.244,1594.248,1863.132,1598.75z"/>
					</g>
				</g>
				<g>
					<g>
						<path style="fill:#371A45;" d="M1874.494,1567.212c-91.055,0-183.848-25.21-267.315-75.283l-1.025-0.815l-37.91-39.36        c-0.498-0.693-50.4-70.054-87.642-146.816c-37.612-77.529-32.1-194.854-31.846-199.81l0.103-0.767        c47.275-226.352,177.856-348.525,388.105-363.135c122.222-8.428,250.586,38.247,343.516,125.015        c83.511,77.969,129.463,178.979,129.385,284.419c-0.112,153.101-75.132,283.315-205.82,357.251        C2034.025,1547.524,1954.938,1567.212,1874.494,1567.212z M1612.892,1483.691c154.004,92.134,340.249,98.096,486.23,15.513        c127.466-72.109,200.635-199.155,200.742-348.555c0.078-102.632-44.746-201.045-126.211-277.104        c-90.928-84.898-216.557-130.649-335.996-122.339c-205.117,14.248-332.607,133.628-378.931,354.805        c-0.322,7.451-4.58,121.479,30.869,194.561c35.664,73.506,83.047,140.146,86.553,145.039L1612.892,1483.691z"/>
					</g>
				</g>
				<g>
					<g>
						<path style="fill:#FFFFFF;" d="M2525.298,1114.535c11.817,96.757-36.184,185.163-107.238,197.449        c-71.054,12.285-138.231-56.2-150.047-152.957c-0.086-0.604-0.147-1.25-0.2-1.863        c-11.003-96.026,36.882-183.393,107.437-195.586c54.889-9.494,107.464,29.221,133.998,91.919        C2517.05,1071.96,2522.609,1092.531,2525.298,1114.535z"/>
					</g>
				</g>
				<g style="opacity:0.2;">
					<g>
						<path style="fill:#371A45;" d="M2525.298,1114.535c11.817,96.757-36.184,185.163-107.238,197.449        c-71.054,12.285-138.231-56.2-150.047-152.957c-0.086-0.604-0.147-1.25-0.2-1.863c9.024,8.578,22.376,16.255,38.446,10.111        c28.143-10.773,72.318-81.944,72.318-81.944s56.577-14.174,130.672-31.834        C2517.05,1071.96,2522.609,1092.531,2525.298,1114.535z"/>
					</g>
				</g>
				<g>
					<g>
						<path style="fill:#371A45;" d="M2401.32,1327.422c-25.117,0-49.766-8.569-72.222-25.254        c-40.332-29.966-67.661-81.528-74.98-141.455c-12.695-103.897,40.586-199.419,118.765-212.93        c31.616-5.469,63.208,2.69,91.343,23.599c40.332,29.966,67.661,81.528,74.98,141.455l0,0        c12.695,103.901-40.586,199.419-118.765,212.93C2414.059,1326.87,2407.673,1327.422,2401.32,1327.422z M2391.818,974.15        c-4.722,0-9.448,0.405-14.17,1.221c-63.701,11.011-106.65,92.632-95.737,181.943c6.299,51.587,30.181,97.339,63.887,122.383        c21.831,16.216,46.006,22.612,69.878,18.481c63.701-11.011,106.65-92.632,95.737-181.943l0,0        c-6.299-51.587-30.181-97.339-63.887-122.383C2430.011,980.839,2410.988,974.15,2391.818,974.15z"/>
					</g>
				</g>
				<g>
					<g>
						
							<ellipse transform="matrix(0.998 -0.0639 0.0639 0.998 -67.9779 158.1663)" style="fill:#FFFFFF;" cx="2440.202" cy="1142.459" rx="98.255" ry="144.143"/>
					</g>
				</g>
				<g style="opacity:0.2;">
					<g>
						<path style="fill:#371A45;" d="M2457.067,1285.371c53.61-9.697,89.481-81.529,80.157-160.478        c-0.994-8.572-2.53-16.873-4.462-24.844c-7.767,56.101-38.881,100.508-80.561,108.005        c-47.068,8.462-92.187-32.975-109.231-95.906c-1.717,15.312-1.737,31.436,0.19,47.854        C2352.484,1238.953,2403.487,1295.06,2457.067,1285.371z"/>
					</g>
				</g>
				<g>
					<g>
						<path style="fill:#371A45;" d="M2444.889,1300.473c-18.628,0-37.002-6.401-53.857-18.872        c-32.656-24.17-55.742-69.009-61.758-119.946c-10.337-87.471,29.878-164.727,91.558-175.879        c23.564-4.273,47.266,1.807,68.54,17.544c32.656,24.165,55.747,69.004,61.763,119.941l0,0        c10.332,87.466-29.888,164.727-91.558,175.884C2454.679,1300.034,2449.777,1300.473,2444.889,1300.473z M2435.329,1012.47        c-3.179,0-6.357,0.283-9.512,0.854c-45.576,8.242-77.056,74.668-68.74,145.049c5.127,43.408,24.048,81.06,50.61,100.718        c14.912,11.04,31.147,15.351,46.899,12.505c45.571-8.247,77.051-74.678,68.745-145.054l0,0        c-5.132-43.408-24.053-81.06-50.615-100.718C2460.793,1017.002,2448.029,1012.47,2435.329,1012.47z"/>
					</g>
				</g>
				<g style="opacity:0.5;">
					<g>
						<path style="fill:#FFFFFF;" d="M1964.576,845.743c0,0-207.845-6.704-317.606,122.866c-0.115,0.136-0.231,0.273-0.346,0.409        c-23.077,27.289-43.298,95.208-49.319,130.174c-7.962,46.241-6.596,69.212-4.259,98.183        c7.148,88.105,27.202,127.955,27.202,127.955c-54.566-42.187-87.473-92.574-94.165-165.897        c-0.64-7.23-1.03-14.711-1.184-22.403c-0.042-1.772-0.043-3.53-0.017-5.302c-0.04-0.013-0.026-0.053,0.016-0.106        c0.798-15.61,2.629-26.09,6.649-49.033c12.082-69.206,43.872-160.853,126.602-209.227        C1812.84,782.908,1971.184,835.909,1964.576,845.743z"/>
					</g>
				</g>
				<g style="opacity:0.5;">
					<g>
						
							<ellipse transform="matrix(0.9378 -0.3473 0.3473 0.9378 -249.9136 806.081)" style="fill:#FFFFFF;" cx="2124.005" cy="1100.298" rx="67" ry="76.963"/>
					</g>
				</g>
				<g style="opacity:0.5;">
					<g>
						
							<ellipse transform="matrix(0.9014 -0.4329 0.4329 0.9014 -323.5787 1062.4386)" style="fill:#FFFFFF;" cx="2171.446" cy="1241.835" rx="27.656" ry="31.792"/>
					</g>
				</g>
			</g>
		</g>
		<g>
			<g>
				<g>
					<path style="fill:#FFD243;" d="M2955.452,1410.155l32.412,55.651l64.219,4.849c18.293,1.381,27.062,23.139,14.838,36.818       l-42.911,48.023l15.233,62.574c4.339,17.824-13.644,32.887-30.431,25.489l-58.933-25.971l-54.805,33.824       c-15.611,9.635-35.494-2.813-33.645-21.065l6.489-64.074l-49.104-41.67c-13.987-11.87-8.292-34.626,9.637-38.508l62.943-13.629       l24.457-59.578C2922.817,1395.919,2946.219,1394.303,2955.452,1410.155z"/>
				</g>
			</g>
			<g style="opacity:0.2;">
				<g>
					<path style="fill:#371A45;" d="M3066.916,1507.494l-42.908,48.011l15.221,62.556c4.336,17.84-13.64,32.881-30.397,25.519       l-58.942-25.971l-54.832,33.784c-14.408,8.943-32.519-1.084-33.694-17.073c3.252-0.316,6.504-1.355,9.62-3.252l54.787-33.784       l58.942,25.971c16.802,7.363,34.778-7.678,30.442-25.518l-15.221-62.556l42.908-48.011c4.426-4.969,6.097-11.021,5.555-16.802       l3.704,0.271C3070.394,1472.038,3079.156,1493.808,3066.916,1507.494z"/>
				</g>
			</g>
			<g style="opacity:0.61;">
				<g>
					<path style="fill:#FFFFFF;" d="M2959.691,1417.477c-7.272,1.039-14.047,5.555-17.299,13.459l-24.48,59.575l-62.917,13.64       c-17.931,3.884-23.622,26.648-9.665,38.526l49.141,41.644l-6.504,64.091c-0.226,1.987-0.135,3.929,0.181,5.781       c-13.911,3.161-28.274-8.221-26.739-23.848l6.504-64.091l-49.096-41.644c-14.001-11.879-8.31-34.643,9.621-38.526l62.962-13.64       l24.435-59.575c7.001-16.937,30.397-18.563,39.611-2.71L2959.691,1417.477z"/>
				</g>
			</g>
			<g>
				<g>
					<path style="fill:#371A45;" d="M2883.449,1668.301c-6.548,0-13.101-1.826-18.931-5.474       c-11.597-7.261-17.949-20.229-16.572-33.843l5.771-56.987l-43.672-37.061c-10.43-8.852-14.849-22.598-11.528-35.869       s13.687-23.316,27.061-26.216l55.986-12.119l21.753-52.988c5.195-12.656,16.904-21.108,30.552-22.051       c13.657-0.884,26.406,5.82,33.291,17.642l28.828,49.497l57.114,4.312c13.647,1.03,25.298,9.556,30.415,22.246       c5.112,12.691,2.627,26.914-6.494,37.114l-38.164,42.71l13.55,55.654c3.237,13.291-1.27,27.007-11.763,35.791       c-10.488,8.789-24.79,10.815-37.3,5.298l-52.412-23.096l-48.74,30.083C2896.403,1666.518,2889.928,1668.301,2883.449,1668.301z        M2936.34,1412.71c-0.225,0-0.43,0.01-0.605,0.02c-1.597,0.112-5.518,0.85-7.349,5.307l-24.458,59.575       c-1.694,4.126-5.308,7.153-9.668,8.096l-62.944,13.628c-4.707,1.021-6.118,4.751-6.509,6.309s-0.898,5.513,2.773,8.628       l49.106,41.67c3.398,2.886,5.161,7.261,4.712,11.699l-6.489,64.072c-0.483,4.79,2.627,7.29,3.989,8.14       c1.362,0.859,4.971,2.564,9.063,0.029l54.8-33.823c3.799-2.349,8.501-2.676,12.583-0.869l58.931,25.972       c4.395,1.934,7.744-0.244,8.975-1.279c1.23-1.03,3.97-3.931,2.832-8.608l-15.234-62.573c-1.055-4.331,0.088-8.906,3.062-12.232       l42.91-48.022c3.208-3.594,2.163-7.442,1.563-8.931c-0.601-1.489-2.515-4.99-7.319-5.352l-64.219-4.849       c-4.448-0.337-8.442-2.837-10.688-6.689l-32.412-55.649l0,0C2941.584,1413.271,2938.19,1412.71,2936.34,1412.71z"/>
				</g>
			</g>
		</g>
		<g>
			<g>
				<g>
					<path style="fill:#FFD243;" d="M998.204,1613.815l32.412,55.651l64.219,4.849c18.293,1.381,27.061,23.139,14.838,36.818       l-42.911,48.023l15.233,62.574c4.339,17.824-13.644,32.887-30.431,25.489l-58.933-25.971l-54.805,33.824       c-15.611,9.635-35.494-2.813-33.645-21.065l6.489-64.074l-49.104-41.67c-13.987-11.87-8.292-34.626,9.637-38.508l62.943-13.629       l24.456-59.578C965.569,1599.578,988.971,1597.962,998.204,1613.815z"/>
				</g>
			</g>
			<g style="opacity:0.2;">
				<g>
					<path style="fill:#371A45;" d="M1109.668,1711.154l-42.908,48.011l15.221,62.556c4.336,17.84-13.64,32.881-30.397,25.519       l-58.942-25.971l-54.832,33.784c-14.408,8.943-32.52-1.084-33.694-17.073c3.252-0.316,6.504-1.355,9.62-3.252l54.787-33.784       l58.942,25.971c16.802,7.363,34.778-7.678,30.442-25.519l-15.221-62.556l42.908-48.011c4.426-4.969,6.097-11.021,5.555-16.802       l3.704,0.271C1113.146,1675.698,1121.908,1697.468,1109.668,1711.154z"/>
				</g>
			</g>
			<g style="opacity:0.61;">
				<g>
					<path style="fill:#FFFFFF;" d="M1002.443,1621.137c-7.272,1.039-14.047,5.555-17.299,13.46l-24.48,59.575l-62.917,13.64       c-17.931,3.884-23.622,26.648-9.665,38.526l49.141,41.644l-6.504,64.091c-0.226,1.987-0.136,3.929,0.181,5.781       c-13.911,3.161-28.274-8.221-26.738-23.848l6.504-64.091l-49.096-41.644c-14.001-11.879-8.31-34.643,9.621-38.526l62.962-13.64       l24.435-59.575c7.001-16.937,30.397-18.563,39.611-2.71L1002.443,1621.137z"/>
				</g>
			</g>
			<g>
				<g>
					<path style="fill:#371A45;" d="M926.198,1871.963c-6.553,0-13.106-1.831-18.936-5.483       c-11.597-7.261-17.944-20.225-16.563-33.838l5.771-56.987l-43.672-37.061c-10.435-8.853-14.849-22.593-11.528-35.869       c3.32-13.271,13.691-23.315,27.065-26.211l55.982-12.119l21.748-52.993c5.195-12.656,16.904-21.104,30.552-22.046       c13.687-0.918,26.411,5.815,33.296,17.637l0,0l28.828,49.502l57.114,4.312c13.642,1.03,25.298,9.556,30.41,22.246       c5.112,12.691,2.627,26.909-6.489,37.109l-38.164,42.71l13.545,55.659c3.237,13.291-1.265,27.007-11.753,35.791       c-10.488,8.794-24.79,10.815-37.305,5.298l-52.417-23.096l-48.745,30.078C939.152,1870.176,932.673,1871.958,926.198,1871.963z        M979.094,1616.372c-0.23,0-0.43,0.01-0.606,0.02c-1.602,0.112-5.523,0.849-7.354,5.303l-24.453,59.58       c-1.694,4.126-5.308,7.153-9.668,8.096l-62.944,13.628c-4.707,1.021-6.118,4.751-6.509,6.309       c-0.391,1.553-0.898,5.508,2.768,8.623l49.107,41.67c3.403,2.886,5.166,7.261,4.717,11.699l-6.489,64.077       c-0.488,4.79,2.622,7.285,3.979,8.135c1.362,0.854,4.966,2.559,9.067,0.029l54.805-33.818       c3.789-2.349,8.491-2.676,12.578-0.869l58.935,25.972c4.4,1.934,7.744-0.244,8.975-1.279c1.23-1.025,3.965-3.931,2.827-8.604       l-15.23-62.583c-1.055-4.331,0.088-8.906,3.062-12.232l42.91-48.022c3.208-3.589,2.158-7.437,1.558-8.926       c-0.601-1.489-2.515-4.99-7.315-5.352l-64.219-4.849c-4.448-0.337-8.442-2.837-10.689-6.689l-32.412-55.654       C984.338,1616.928,980.944,1616.372,979.094,1616.372z"/>
				</g>
			</g>
		</g>
		<g>
			<g>
				<g>
					<path style="fill:#FFD243;" d="M1240.779,525.99l32.412,55.651l64.219,4.849c18.293,1.381,27.061,23.139,14.838,36.818       l-42.911,48.023l15.233,62.574c4.339,17.825-13.644,32.887-30.431,25.489l-58.933-25.971l-54.805,33.824       c-15.611,9.635-35.494-2.813-33.646-21.065l6.489-64.074l-49.104-41.67c-13.987-11.87-8.292-34.626,9.637-38.508l62.943-13.629       l24.456-59.578C1208.144,511.754,1231.547,510.138,1240.779,525.99z"/>
				</g>
			</g>
			<g style="opacity:0.2;">
				<g>
					<path style="fill:#371A45;" d="M1352.244,623.329l-42.908,48.011l15.221,62.556c4.336,17.84-13.64,32.881-30.397,25.518       l-58.942-25.971l-54.832,33.784c-14.408,8.943-32.52-1.084-33.694-17.073c3.252-0.316,6.504-1.355,9.62-3.252l54.787-33.784       l58.942,25.971c16.802,7.363,34.778-7.678,30.442-25.518l-15.221-62.556l42.908-48.011c4.426-4.969,6.097-11.021,5.555-16.802       l3.704,0.271C1355.721,587.873,1364.484,609.644,1352.244,623.329z"/>
				</g>
			</g>
			<g style="opacity:0.61;">
				<g>
					<path style="fill:#FFFFFF;" d="M1245.019,533.313c-7.272,1.039-14.047,5.555-17.299,13.459l-24.48,59.575l-62.917,13.64       c-17.931,3.884-23.622,26.648-9.665,38.526l49.141,41.644l-6.504,64.091c-0.226,1.987-0.135,3.929,0.181,5.781       c-13.911,3.161-28.274-8.221-26.738-23.848l6.504-64.091l-49.096-41.644c-14.001-11.879-8.31-34.643,9.621-38.526l62.962-13.64       l24.435-59.575c7.001-16.937,30.397-18.563,39.611-2.71L1245.019,533.313z"/>
				</g>
			</g>
			<g>
				<g>
					<path style="fill:#371A45;" d="M1168.776,784.135c-6.548,0-13.101-1.826-18.931-5.474       c-11.597-7.261-17.949-20.229-16.572-33.843l5.771-56.987l-43.672-37.061c-10.43-8.853-14.849-22.598-11.528-35.869       c3.32-13.271,13.692-23.315,27.066-26.211l55.981-12.124l21.753-52.988c5.195-12.656,16.904-21.108,30.552-22.051       c13.677-0.889,26.406,5.82,33.291,17.642l28.828,49.497l57.114,4.312c13.648,1.03,25.298,9.556,30.415,22.246       c5.112,12.69,2.627,26.914-6.494,37.114l-38.164,42.71l13.55,55.654c3.237,13.296-1.27,27.012-11.763,35.796       c-10.488,8.779-24.79,10.815-37.3,5.293l-52.412-23.096l-48.74,30.083C1181.73,782.353,1175.256,784.135,1168.776,784.135z        M1221.667,528.545c-0.224,0-0.43,0.01-0.605,0.019c-1.597,0.112-5.517,0.85-7.349,5.308l-24.458,59.575       c-1.694,4.126-5.308,7.153-9.668,8.096l-62.944,13.633c-4.707,1.021-6.118,4.746-6.509,6.304       c-0.391,1.558-0.898,5.513,2.773,8.628l49.107,41.67c3.398,2.886,5.161,7.261,4.712,11.699l-6.489,64.072       c-0.483,4.79,2.627,7.29,3.989,8.14c1.362,0.859,4.966,2.568,9.063,0.029l54.8-33.823c3.799-2.354,8.496-2.671,12.583-0.869       l58.931,25.972c4.438,1.943,7.749-0.244,8.975-1.275c1.23-1.03,3.97-3.931,2.832-8.613l-15.234-62.573       c-1.055-4.331,0.088-8.906,3.062-12.231l42.91-48.022c3.208-3.594,2.163-7.441,1.563-8.931       c-0.601-1.489-2.515-4.99-7.319-5.352l-64.219-4.849c-4.448-0.337-8.442-2.837-10.688-6.69l-32.412-55.649l0,0       C1226.911,529.106,1223.517,528.545,1221.667,528.545z"/>
				</g>
			</g>
		</g>
	</g>
</g>
</svg>